<svg width="350" height="174" viewBox="0 0 350 174" fill="none" xmlns="http://www.w3.org/2000/svg">
<path d="M129.581 173.072V0.928223H159.099V68.7454H182.955V0.928223H212.473V173.072H182.955V103.5H159.099V173.072H129.581Z" fill="#0E357A"/>
<path d="M217.659 173.072V0.928223H273.351C289.479 0.928223 301.215 4.39062 308.559 11.3154C315.903 18.1719 319.575 27.8125 319.575 40.2373C319.575 46.9531 318.363 53.0811 315.939 58.6211C313.584 64.0928 310.224 68.6016 305.859 72.1475C301.563 75.625 296.479 78.1064 290.607 79.5928L324.765 173.072H291.681L263.397 90.7314H247.161V173.072H217.659ZM247.161 68.334H272.505C279.152 68.334 284.453 66.8477 288.407 63.875C292.43 60.8339 294.441 56.6543 294.441 51.3359C294.441 46.5352 292.83 42.624 289.607 39.6016C286.453 36.5104 281.848 34.9648 275.791 34.9648H247.161V68.334Z" fill="#0E357A"/>
<path d="M85.4594 133.514C102.551 133.514 116.517 127.854 127.359 116.534C138.202 105.213 143.623 91.0333 143.623 74C143.623 56.9667 138.202 42.7872 127.359 31.4669C116.517 20.0782 102.551 14.3848 85.4594 14.3848C68.3676 14.3848 54.4021 20.0782 43.5596 31.4669C32.7171 42.7872 27.2959 56.9667 27.2959 74C27.2959 91.0333 32.7171 105.213 43.5596 116.534C54.4021 127.854 68.3676 133.514 85.4594 133.514ZM85.4594 109.12C75.2348 109.12 66.8608 105.334 60.3373 97.7628C53.8139 90.1231 50.5522 82.5522 50.5522 74C50.5522 65.4478 53.8139 57.8769 60.3373 50.2373C66.8608 42.5977 75.2348 38.7783 85.4594 38.7783C95.6839 38.7783 104.058 42.5977 110.581 50.2373C117.105 57.8769 120.367 65.4478 120.367 74C120.367 82.5522 117.105 90.1231 110.581 97.7628C104.058 105.334 95.6839 109.12 85.4594 109.12Z" fill="#F9B208"/>
<path d="M0 132V83.5L34.5 107.5L62.5 132H0Z" fill="#0E357A"/>
</svg>
